<?xml version="1.0" standalone="no"?>
<!DOCTYPE svg PUBLIC "-//W3C//DTD SVG 20010904//EN"
 "http://www.w3.org/TR/2001/REC-SVG-20010904/DTD/svg10.dtd">
<svg version="1.0" xmlns="http://www.w3.org/2000/svg"
 width="114.000000pt" height="114.000000pt" viewBox="0 0 114.000000 114.000000"
 preserveAspectRatio="xMidYMid meet">
<metadata>
Created by potrace 1.11, written by Peter Selinger 2001-2013
</metadata>
<g transform="translate(0.000000,114.000000) scale(0.100000,-0.100000)"
fill="#000000" stroke="none">
<path d="M411 966 c-48 -17 -108 -71 -132 -117 -25 -50 -27 -139 -4 -197 10
-23 37 -60 61 -81 l44 -39 -46 -37 c-58 -48 -56 -68 14 -117 98 -67 231 -75
341 -19 31 16 81 40 112 55 67 31 105 79 118 149 23 123 -49 223 -181 251 -15
4 -30 15 -33 27 -11 35 -77 101 -120 120 -46 21 -124 23 -174 5z m54 -53 c3
-21 17 -57 31 -79 21 -37 22 -43 8 -55 -13 -10 -25 -3 -80 52 -35 35 -64 67
-64 72 0 7 76 46 91 47 4 0 10 -17 14 -37z m113 17 c23 -10 42 -23 42 -27 0
-5 -17 -26 -38 -46 -32 -31 -41 -35 -50 -24 -16 18 -42 83 -42 102 0 21 36 19
88 -5z m-121 -198 c-12 -11 -22 -9 -62 12 -26 14 -61 26 -76 26 -35 0 -37 15
-8 72 l21 41 69 -69 c58 -57 67 -71 56 -82z m223 92 c0 -8 -7 -14 -15 -14 -9
0 -29 -7 -45 -15 -16 -8 -36 -12 -45 -9 -13 6 -9 15 27 51 l43 44 18 -22 c9
-12 17 -27 17 -35z m57 -40 l22 -6 -22 -18 c-21 -17 -24 -17 -50 -2 -24 15
-25 17 -10 24 23 9 33 9 60 2z m-184 -20 c3 -3 1 -14 -6 -25 -8 -13 -14 -15
-24 -7 -10 8 -10 14 -2 24 12 15 22 17 32 8z m277 -31 c0 -22 -21 -68 -37 -80
-12 -9 -20 -9 -39 4 -33 21 -30 53 8 84 26 22 35 25 50 15 10 -6 18 -16 18
-23z m-163 5 c41 -28 42 -50 3 -78 -36 -26 -60 -16 -85 32 -15 31 -15 33 7 50
30 23 35 22 75 -4z m-279 -22 c17 -9 32 -18 32 -19 0 -2 -20 -22 -44 -46 l-44
-43 -18 33 c-9 19 -20 50 -24 70 l-7 36 36 -7 c20 -4 51 -14 69 -24z m119 -7
c8 -8 8 -20 1 -41 l-10 -29 -18 28 c-23 37 -2 71 27 42z m379 -58 l7 -33 -27
17 c-16 11 -25 24 -22 32 4 8 6 22 6 31 0 28 29 -8 36 -47z m-334 -24 c-18
-18 -22 -19 -22 -5 0 9 5 29 11 45 l11 28 11 -23 c9 -19 7 -27 -11 -45z m-93
21 c7 -12 17 -34 21 -50 8 -25 6 -28 -27 -37 -22 -6 -42 -7 -52 -1 -48 28 -48
27 -6 70 21 22 42 40 45 40 3 0 11 -10 19 -22z m279 -15 c16 -13 20 -25 15
-46 -5 -25 -9 -28 -41 -25 -29 2 -37 8 -43 28 -4 18 0 30 15 42 26 22 29 22
54 1z m-104 -22 c2 -3 6 -18 10 -33 6 -26 5 -26 -26 -17 -18 5 -45 9 -61 9
l-27 0 32 29 c29 25 61 31 72 12z m221 -3 c27 -18 35 -29 33 -48 -3 -22 -8
-25 -46 -28 -58 -4 -74 9 -60 51 10 27 24 46 36 47 1 0 18 -10 37 -22z m-210
-92 c28 -13 64 -36 80 -50 l30 -26 -25 -21 c-55 -45 -111 -64 -195 -64 -84 0
-140 19 -195 64 l-25 21 30 26 c54 47 125 74 190 74 43 0 74 -7 110 -24z m120
4 c3 -5 2 -16 -2 -25 -7 -12 -13 -10 -38 10 l-30 24 32 1 c17 0 35 -4 38 -10z
m60 -58 c-32 -29 -40 -33 -43 -20 -6 32 17 58 51 58 l32 -1 -40 -37z"/>
<path d="M411 464 c-12 -14 -10 -19 9 -37 16 -16 24 -18 27 -9 4 10 8 10 20 1
12 -10 16 -10 24 2 8 12 10 12 18 0 7 -11 13 -12 23 -3 11 9 17 9 27 -1 9 -9
14 -9 21 3 9 13 11 13 20 0 8 -13 12 -12 31 7 20 20 21 23 6 37 -19 19 -33 20
-41 4 -5 -10 -7 -10 -12 0 -3 6 -12 12 -19 12 -7 0 -16 -6 -18 -12 -4 -10 -6
-10 -6 0 -1 6 -7 12 -15 12 -8 0 -17 -6 -19 -12 -4 -10 -8 -10 -15 1 -9 12
-13 12 -26 2 -11 -9 -16 -10 -16 -2 0 16 -23 13 -39 -5z"/>
</g>
</svg>
