<?xml version="1.0" encoding="UTF-8"?>
<!DOCTYPE svg PUBLIC "-//W3C//DTD SVG 1.1//EN" "http://www.w3.org/Graphics/SVG/1.1/DTD/svg11.dtd">
<svg version="1.2" width="262.5mm" height="371.25mm" viewBox="0 0 26250 37125" preserveAspectRatio="xMidYMid" fill-rule="evenodd" stroke-width="28.222" stroke-linejoin="round" xmlns="http://www.w3.org/2000/svg" xmlns:ooo="http://xml.openoffice.org/svg/export" xmlns:xlink="http://www.w3.org/1999/xlink" xmlns:presentation="http://sun.com/xmlns/staroffice/presentation" xmlns:smil="http://www.w3.org/2001/SMIL20/" xmlns:anim="urn:oasis:names:tc:opendocument:xmlns:animation:1.0" xml:space="preserve">
 <defs class="ClipPathGroup">
  <clipPath id="presentation_clip_path" clipPathUnits="userSpaceOnUse">
   <rect x="0" y="0" width="26250" height="37125"/>
  </clipPath>
  <clipPath id="presentation_clip_path_shrink" clipPathUnits="userSpaceOnUse">
   <rect x="26" y="37" width="26198" height="37051"/>
  </clipPath>
 </defs>
 <defs class="TextShapeIndex">
  <g ooo:slide="id1" ooo:id-list="id3 id4 id5 id6"/>
 </defs>
 <defs class="EmbeddedBulletChars">
  <g id="bullet-char-template-57356" transform="scale(0.00048828125,-0.00048828125)">
   <path d="M 580,1141 L 1163,571 580,0 -4,571 580,1141 Z"/>
  </g>
  <g id="bullet-char-template-57354" transform="scale(0.00048828125,-0.00048828125)">
   <path d="M 8,1128 L 1137,1128 1137,0 8,0 8,1128 Z"/>
  </g>
  <g id="bullet-char-template-10146" transform="scale(0.00048828125,-0.00048828125)">
   <path d="M 174,0 L 602,739 174,1481 1456,739 174,0 Z M 1358,739 L 309,1346 659,739 1358,739 Z"/>
  </g>
  <g id="bullet-char-template-10132" transform="scale(0.00048828125,-0.00048828125)">
   <path d="M 2015,739 L 1276,0 717,0 1260,543 174,543 174,936 1260,936 717,1481 1274,1481 2015,739 Z"/>
  </g>
  <g id="bullet-char-template-10007" transform="scale(0.00048828125,-0.00048828125)">
   <path d="M 0,-2 C -7,14 -16,27 -25,37 L 356,567 C 262,823 215,952 215,954 215,979 228,992 255,992 264,992 276,990 289,987 310,991 331,999 354,1012 L 381,999 492,748 772,1049 836,1024 860,1049 C 881,1039 901,1025 922,1006 886,937 835,863 770,784 769,783 710,716 594,584 L 774,223 C 774,196 753,168 711,139 L 727,119 C 717,90 699,76 672,76 641,76 570,178 457,381 L 164,-76 C 142,-110 111,-127 72,-127 30,-127 9,-110 8,-76 1,-67 -2,-52 -2,-32 -2,-23 -1,-13 0,-2 Z"/>
  </g>
  <g id="bullet-char-template-10004" transform="scale(0.00048828125,-0.00048828125)">
   <path d="M 285,-33 C 182,-33 111,30 74,156 52,228 41,333 41,471 41,549 55,616 82,672 116,743 169,778 240,778 293,778 328,747 346,684 L 369,508 C 377,444 397,411 428,410 L 1163,1116 C 1174,1127 1196,1133 1229,1133 1271,1133 1292,1118 1292,1087 L 1292,965 C 1292,929 1282,901 1262,881 L 442,47 C 390,-6 338,-33 285,-33 Z"/>
  </g>
  <g id="bullet-char-template-9679" transform="scale(0.00048828125,-0.00048828125)">
   <path d="M 813,0 C 632,0 489,54 383,161 276,268 223,411 223,592 223,773 276,916 383,1023 489,1130 632,1184 813,1184 992,1184 1136,1130 1245,1023 1353,916 1407,772 1407,592 1407,412 1353,268 1245,161 1136,54 992,0 813,0 Z"/>
  </g>
  <g id="bullet-char-template-8226" transform="scale(0.00048828125,-0.00048828125)">
   <path d="M 346,457 C 273,457 209,483 155,535 101,586 74,649 74,723 74,796 101,859 155,911 209,963 273,989 346,989 419,989 480,963 531,910 582,859 608,796 608,723 608,648 583,586 532,535 482,483 420,457 346,457 Z"/>
  </g>
  <g id="bullet-char-template-8211" transform="scale(0.00048828125,-0.00048828125)">
   <path d="M -4,459 L 1135,459 1135,606 -4,606 -4,459 Z"/>
  </g>
  <g id="bullet-char-template-61548" transform="scale(0.00048828125,-0.00048828125)">
   <path d="M 173,740 C 173,903 231,1043 346,1159 462,1274 601,1332 765,1332 928,1332 1067,1274 1183,1159 1299,1043 1357,903 1357,740 1357,577 1299,437 1183,322 1067,206 928,148 765,148 601,148 462,206 346,322 231,437 173,577 173,740 Z"/>
  </g>
 </defs>
 <defs class="TextEmbeddedBitmaps"/>
 <g>
  <g id="id2" class="Master_Slide">
   <g id="bg-id2" class="Background"/>
   <g id="bo-id2" class="BackgroundObjects"/>
  </g>
 </g>
 <g class="SlideGroup">
  <g>
   <g id="container-id1">
    <g id="id1" class="Slide" clip-path="url(#presentation_clip_path)">
     <g class="Page">
      <g class="com.sun.star.drawing.ClosedBezierShape">
       <g id="id3">
        <rect class="BoundingBox" stroke="none" fill="none" x="7541" y="6583" width="1680" height="1680"/>
       </g>
      </g>
      <g class="com.sun.star.drawing.ClosedBezierShape">
       <g id="id4">
        <rect class="BoundingBox" stroke="none" fill="none" x="8693" y="2893" width="9059" height="10161"/>
       </g>
      </g>
      <g class="com.sun.star.drawing.ClosedBezierShape">
       <g id="id5">
        <rect class="BoundingBox" stroke="none" fill="none" x="17174" y="6583" width="1679" height="1680"/>
       </g>
      </g>
      <g class="com.sun.star.drawing.ClosedBezierShape">
       <g id="id6">
        <rect class="BoundingBox" stroke="none" fill="none" x="1312" y="1312" width="23628" height="23628"/>
        <path fill="rgb(0,0,0)" stroke="none" d="M 21489,1313 L 4811,1313 C 2895,1313 1313,2895 1313,4811 L 1313,24171 C 1313,24604 1648,24939 2080,24939 2511,24939 2895,24604 2895,24171 L 2895,4811 C 2895,3756 3757,2895 4811,2895 L 6632,2895 8118,2895 8118,6009 C 7447,6153 6968,6729 6968,7447 6968,8069 7399,8598 7975,8789 7975,8885 7975,8981 8022,9076 L 9172,12143 C 9220,12240 9316,12336 9412,12383 L 11904,14156 11904,19093 C 11904,19236 12000,19619 11808,20002 L 9987,23549 C 9844,23788 9939,24171 10226,24316 10322,24364 10418,24364 10466,24364 10706,24364 10898,24267 10993,24075 L 13006,20194 C 13055,20194 13055,20194 13102,20194 13150,20194 13150,20194 13198,20194 L 15211,24075 C 15306,24267 15498,24364 15737,24364 15786,24364 15882,24364 15978,24316 16265,24171 16360,23788 16217,23549 L 14396,20002 C 14204,19619 14300,19236 14300,19093 L 14300,14156 16792,12383 C 16888,12336 16984,12239 16984,12143 L 18181,9076 C 18229,8980 18229,8933 18229,8837 18900,8741 19428,8166 19428,7446 19428,6728 18948,6152 18325,6009 L 18325,2895 19763,2895 21488,2895 C 22543,2895 23357,3756 23357,4811 L 23357,24171 C 23357,24604 23740,24939 24172,24939 24603,24939 24939,24604 24939,24171 L 24939,4811 C 24939,2895 23357,1313 21489,1313 Z M 8405,8262 C 7926,8262 7543,7878 7543,7446 7543,6968 7927,6585 8405,6585 8837,6585 9220,6968 9220,7446 9220,7878 8837,8262 8405,8262 Z M 17127,8645 L 15978,11567 14588,12526 C 14779,12287 14924,11952 14924,11567 14924,10706 14205,9988 13294,9988 12384,9988 11665,10706 11665,11567 11665,12239 12048,12814 12623,13053 L 12384,13053 12336,13053 10179,11567 9077,8645 C 9508,8406 9796,7973 9796,7446 9796,6728 9316,6152 8693,6009 L 8693,2895 9268,2895 10274,2895 15978,2895 16984,2895 17751,2895 17751,6009 C 17080,6152 16600,6728 16600,7446 16600,7878 16792,8310 17175,8549 17127,8598 17127,8598 17127,8645 Z M 18853,7446 C 18853,7878 18470,8262 18038,8262 17559,8262 17175,7878 17175,7446 17175,6968 17559,6585 18038,6585 18470,6585 18853,6968 18853,7446 Z"/>
       </g>
      </g>
     </g>
    </g>
   </g>
  </g>
 </g>
</svg>