<?xml version="1.0" encoding="UTF-8"?>
<!DOCTYPE svg PUBLIC "-//W3C//DTD SVG 1.1//EN" "http://www.w3.org/Graphics/SVG/1.1/DTD/svg11.dtd">
<svg version="1.2" width="262.5mm" height="371.25mm" viewBox="0 0 26250 37125" preserveAspectRatio="xMidYMid" fill-rule="evenodd" stroke-width="28.222" stroke-linejoin="round" xmlns="http://www.w3.org/2000/svg" xmlns:ooo="http://xml.openoffice.org/svg/export" xmlns:xlink="http://www.w3.org/1999/xlink" xmlns:presentation="http://sun.com/xmlns/staroffice/presentation" xmlns:smil="http://www.w3.org/2001/SMIL20/" xmlns:anim="urn:oasis:names:tc:opendocument:xmlns:animation:1.0" xml:space="preserve">
 <defs class="ClipPathGroup">
  <clipPath id="presentation_clip_path" clipPathUnits="userSpaceOnUse">
   <rect x="0" y="0" width="26250" height="37125"/>
  </clipPath>
  <clipPath id="presentation_clip_path_shrink" clipPathUnits="userSpaceOnUse">
   <rect x="26" y="37" width="26198" height="37051"/>
  </clipPath>
 </defs>
 <defs class="TextShapeIndex">
  <g ooo:slide="id1" ooo:id-list="id3 id4"/>
 </defs>
 <defs class="EmbeddedBulletChars">
  <g id="bullet-char-template-57356" transform="scale(0.00048828125,-0.00048828125)">
   <path d="M 580,1141 L 1163,571 580,0 -4,571 580,1141 Z"/>
  </g>
  <g id="bullet-char-template-57354" transform="scale(0.00048828125,-0.00048828125)">
   <path d="M 8,1128 L 1137,1128 1137,0 8,0 8,1128 Z"/>
  </g>
  <g id="bullet-char-template-10146" transform="scale(0.00048828125,-0.00048828125)">
   <path d="M 174,0 L 602,739 174,1481 1456,739 174,0 Z M 1358,739 L 309,1346 659,739 1358,739 Z"/>
  </g>
  <g id="bullet-char-template-10132" transform="scale(0.00048828125,-0.00048828125)">
   <path d="M 2015,739 L 1276,0 717,0 1260,543 174,543 174,936 1260,936 717,1481 1274,1481 2015,739 Z"/>
  </g>
  <g id="bullet-char-template-10007" transform="scale(0.00048828125,-0.00048828125)">
   <path d="M 0,-2 C -7,14 -16,27 -25,37 L 356,567 C 262,823 215,952 215,954 215,979 228,992 255,992 264,992 276,990 289,987 310,991 331,999 354,1012 L 381,999 492,748 772,1049 836,1024 860,1049 C 881,1039 901,1025 922,1006 886,937 835,863 770,784 769,783 710,716 594,584 L 774,223 C 774,196 753,168 711,139 L 727,119 C 717,90 699,76 672,76 641,76 570,178 457,381 L 164,-76 C 142,-110 111,-127 72,-127 30,-127 9,-110 8,-76 1,-67 -2,-52 -2,-32 -2,-23 -1,-13 0,-2 Z"/>
  </g>
  <g id="bullet-char-template-10004" transform="scale(0.00048828125,-0.00048828125)">
   <path d="M 285,-33 C 182,-33 111,30 74,156 52,228 41,333 41,471 41,549 55,616 82,672 116,743 169,778 240,778 293,778 328,747 346,684 L 369,508 C 377,444 397,411 428,410 L 1163,1116 C 1174,1127 1196,1133 1229,1133 1271,1133 1292,1118 1292,1087 L 1292,965 C 1292,929 1282,901 1262,881 L 442,47 C 390,-6 338,-33 285,-33 Z"/>
  </g>
  <g id="bullet-char-template-9679" transform="scale(0.00048828125,-0.00048828125)">
   <path d="M 813,0 C 632,0 489,54 383,161 276,268 223,411 223,592 223,773 276,916 383,1023 489,1130 632,1184 813,1184 992,1184 1136,1130 1245,1023 1353,916 1407,772 1407,592 1407,412 1353,268 1245,161 1136,54 992,0 813,0 Z"/>
  </g>
  <g id="bullet-char-template-8226" transform="scale(0.00048828125,-0.00048828125)">
   <path d="M 346,457 C 273,457 209,483 155,535 101,586 74,649 74,723 74,796 101,859 155,911 209,963 273,989 346,989 419,989 480,963 531,910 582,859 608,796 608,723 608,648 583,586 532,535 482,483 420,457 346,457 Z"/>
  </g>
  <g id="bullet-char-template-8211" transform="scale(0.00048828125,-0.00048828125)">
   <path d="M -4,459 L 1135,459 1135,606 -4,606 -4,459 Z"/>
  </g>
  <g id="bullet-char-template-61548" transform="scale(0.00048828125,-0.00048828125)">
   <path d="M 173,740 C 173,903 231,1043 346,1159 462,1274 601,1332 765,1332 928,1332 1067,1274 1183,1159 1299,1043 1357,903 1357,740 1357,577 1299,437 1183,322 1067,206 928,148 765,148 601,148 462,206 346,322 231,437 173,577 173,740 Z"/>
  </g>
 </defs>
 <defs class="TextEmbeddedBitmaps"/>
 <g>
  <g id="id2" class="Master_Slide">
   <g id="bg-id2" class="Background"/>
   <g id="bo-id2" class="BackgroundObjects"/>
  </g>
 </g>
 <g class="SlideGroup">
  <g>
   <g id="container-id1">
    <g id="id1" class="Slide" clip-path="url(#presentation_clip_path)">
     <g class="Page">
      <g class="com.sun.star.drawing.ClosedBezierShape">
       <g id="id3">
        <rect class="BoundingBox" stroke="none" fill="none" x="818" y="820" width="24618" height="24201"/>
        <path fill="rgb(0,0,0)" stroke="none" d="M 25402,14233 C 25316,12989 24999,11949 24376,10869 23658,9627 22766,8734 21523,8017 20299,7310 19100,6984 17686,6973 17484,6294 17245,5740 16891,5127 16098,3754 15112,2767 13738,1974 12365,1181 11017,820 9432,820 7846,820 6498,1181 5125,1974 3752,2767 2765,3754 1972,5127 1179,6500 818,7848 818,9434 818,11019 1179,12367 1972,13740 2765,15114 3752,16100 5125,16893 5392,17048 5624,17166 5906,17293 5809,17345 5727,17391 5631,17446 4897,17870 4316,18296 3691,18868 L 2502,19947 C 2404,20036 2332,20125 2266,20240 2153,20436 2101,20629 2101,20855 2101,21082 2153,21274 2266,21470 2354,21623 2455,21736 2596,21842 L 3913,22830 C 4277,23102 4598,23313 4991,23540 6741,24550 8456,25013 10475,25020 L 11649,25020 C 13668,25013 15383,24550 17132,23540 17526,23313 17847,23102 18211,22830 L 18675,22481 C 19734,22339 20608,22041 21534,21507 22776,20789 23669,19897 24386,18654 25102,17414 25429,16198 25430,14766 25430,14659 25430,14553 25430,14446 25434,14426 25435,14408 25435,14388 25435,14332 25425,14284 25402,14233 Z M 23761,17863 C 23757,17855 23754,17849 23750,17842 23712,17777 23665,17730 23600,17692 23534,17654 23470,17637 23394,17637 23389,17637 23385,17637 23379,17637 L 20676,17637 19737,16698 20463,14167 21694,13593 23966,15107 C 23974,15112 23981,15116 23990,15121 24055,15159 24119,15176 24195,15176 24197,15176 24198,15176 24200,15176 24267,15176 24324,15162 24384,15131 L 24598,15024 C 24559,16114 24318,17031 23814,17998 L 23761,17863 Z M 19278,19606 L 18478,18868 C 17865,18310 17296,17894 16579,17480 16418,17387 16280,17312 16115,17227 L 19110,17227 20008,18129 19278,19606 Z M 3646,4229 L 8855,9434 7555,10734 C 7076,10299 6632,9975 6072,9652 4883,8965 3740,8616 2370,8519 L 1710,8470 C 1843,7386 2143,6490 2690,5544 2976,5048 3262,4654 3646,4229 Z M 8519,2371 L 8519,2371 C 8616,3738 8966,4880 9651,6068 9975,6628 10299,7072 10734,7551 L 9434,8855 4228,3646 C 4654,3263 5048,2976 5544,2690 6490,2144 7386,1844 8470,1710 L 8519,2371 Z M 15225,4225 C 15611,4651 15898,5047 16186,5545 16469,6035 16665,6475 16841,7014 15715,7133 14782,7436 13801,8002 13555,8144 13354,8275 13125,8441 12665,8169 12297,7903 11895,7551 L 15225,4225 Z M 19503,8056 L 19610,8371 17637,9754 15664,8371 15771,8056 C 16410,7872 16972,7793 17637,7793 18302,7793 18864,7872 19503,8056 Z M 19577,14093 L 19577,14118 19602,14159 18970,16407 16304,16407 15652,14122 17637,12797 19577,14093 Z M 15127,13486 L 13441,12810 12686,10923 C 12678,10902 12670,10885 12659,10866 12624,10804 12580,10760 12518,10724 12508,10719 12500,10714 12489,10709 L 12116,10521 C 12704,9757 13331,9209 14166,8727 14378,8604 14563,8509 14786,8408 14773,8450 14767,8488 14767,8532 14767,8607 14785,8671 14822,8737 14854,8791 14891,8832 14942,8868 L 17227,10467 17227,12084 15127,13486 Z M 11653,11206 L 11981,11370 12645,13011 11005,14651 10664,14520 C 10707,13339 10993,12345 11584,11321 11608,11281 11628,11246 11653,11206 Z M 12428,8987 C 11951,9415 11589,9823 11222,10348 11184,10381 11157,10413 11132,10456 11127,10464 11124,10471 11119,10480 11119,10488 11118,10494 11118,10502 11118,10510 11119,10517 11119,10525 L 10012,9434 11316,8129 C 11681,8463 12013,8719 12428,8987 Z M 9434,10012 L 10685,11263 C 10193,12230 9942,13134 9864,14216 9681,13697 9485,13272 9209,12794 8886,12234 8561,11790 8125,11312 L 9434,10012 Z M 10783,15997 C 10750,15812 10722,15627 10701,15439 L 10890,15533 C 10892,15534 10893,15535 10895,15536 10953,15569 11008,15585 11074,15586 11075,15586 11076,15586 11077,15586 11152,15586 11216,15569 11282,15531 11314,15513 11339,15494 11365,15467 L 13224,13605 14836,14253 15586,16928 C 15590,16944 15596,16958 15604,16973 15608,16979 15611,16984 15615,16989 14117,16304 12721,15999 11074,15997 L 10783,15997 Z M 23265,10664 C 23422,10879 23545,11068 23679,11299 24203,12207 24479,13074 24577,14118 L 24229,14294 22215,12949 22867,10664 23265,10664 Z M 22559,9844 C 22554,9844 22549,9844 22544,9844 22468,9844 22404,9861 22339,9899 22273,9936 22226,9983 22189,10049 22171,10080 22159,10109 22149,10143 L 21378,12830 20098,13441 18047,12084 18047,10467 20332,8868 C 20391,8830 20434,8786 20469,8726 20507,8660 20524,8596 20524,8520 20524,8481 20519,8447 20508,8408 20715,8504 20887,8592 21084,8706 21653,9035 22097,9377 22559,9844 Z M 14639,3646 L 11316,6973 C 10933,6547 10646,6152 10360,5656 9740,4582 9423,3550 9335,2313 L 9290,1641 C 9340,1640 9382,1639 9432,1639 10860,1639 12074,1964 13310,2678 13812,2968 14210,3258 14639,3646 Z M 1640,9290 L 2301,9335 C 3544,9421 4582,9738 5661,10361 6156,10646 6548,10931 6973,11312 L 3646,14639 C 3257,14210 2968,13812 2678,13311 1964,12074 1639,10860 1639,9433 1639,9382 1639,9340 1640,9290 Z M 4208,15225 L 7555,11895 C 7934,12317 8218,12707 8501,13198 9046,14141 9345,15035 9479,16116 8556,16250 7789,16461 6927,16817 6422,16644 6009,16456 5547,16189 5047,15900 4650,15612 4220,15225 L 4208,15225 Z M 17744,22174 C 17405,22426 17107,22623 16742,22834 15121,23769 13532,24197 11661,24200 L 10488,24200 C 8617,24197 7027,23769 5407,22834 5041,22623 4743,22426 4405,22174 L 3088,21185 C 3041,21150 3008,21113 2979,21062 2944,21002 2927,20943 2924,20874 2924,20867 2924,20861 2924,20855 2924,20779 2941,20715 2979,20650 3000,20612 3024,20583 3055,20554 L 4224,19479 C 4794,18962 5323,18576 5990,18191 6351,17982 6667,17823 7050,17658 7100,17649 7141,17634 7184,17609 7198,17601 7210,17594 7223,17584 8511,17052 9692,16817 11086,16817 12948,16817 14531,17241 16143,18172 16817,18561 17351,18953 17924,19479 L 19093,20554 C 19125,20583 19148,20612 19170,20650 19208,20715 19225,20779 19225,20855 19225,20861 19225,20867 19224,20874 19222,20943 19205,21002 19170,21062 19141,21113 19107,21150 19060,21185 L 17744,22174 Z M 19938,21353 C 19999,21217 20032,21092 20045,20943 20045,20927 20046,20913 20046,20896 20046,20669 19994,20477 19881,20281 19878,20276 19875,20271 19872,20266 L 20763,18458 23125,18458 23310,18823 C 22704,19661 22039,20261 21144,20778 20740,21012 20379,21176 19938,21329 L 19938,21353 Z"/>
       </g>
      </g>
      <g class="com.sun.star.drawing.ClosedBezierShape">
       <g id="id4">
        <rect class="BoundingBox" stroke="none" fill="none" x="6152" y="19277" width="9025" height="2463"/>
        <path fill="rgb(0,0,0)" stroke="none" d="M 14766,20098 L 14356,20098 14356,19687 C 14356,19612 14339,19548 14301,19482 14263,19417 14216,19370 14151,19332 14086,19294 14021,19277 13946,19277 13870,19277 13806,19294 13741,19332 13675,19370 13628,19417 13591,19482 13553,19548 13536,19612 13536,19687 L 13536,20098 12715,20098 12715,19687 C 12715,19612 12698,19548 12660,19482 12623,19417 12576,19370 12510,19332 12445,19294 12381,19277 12305,19277 12230,19277 12165,19294 12100,19332 12035,19370 11988,19417 11950,19482 11912,19548 11895,19612 11895,19687 L 11895,20098 11074,20098 11074,19687 C 11074,19612 11057,19548 11019,19482 10982,19417 10935,19370 10869,19332 10804,19294 10740,19277 10664,19277 10589,19277 10525,19294 10459,19332 10394,19370 10347,19417 10309,19482 10271,19548 10254,19612 10254,19687 L 10254,20098 9434,20098 9434,19687 C 9434,19612 9416,19548 9379,19482 9341,19417 9294,19370 9229,19332 9163,19294 9099,19277 9023,19277 8948,19277 8884,19294 8818,19332 8753,19370 8706,19417 8668,19482 8630,19548 8613,19612 8613,19687 L 8613,20098 7793,20098 7793,19687 C 7793,19612 7776,19548 7738,19482 7700,19417 7653,19370 7588,19332 7522,19294 7458,19277 7383,19277 7307,19277 7243,19294 7178,19332 7112,19370 7065,19417 7027,19482 6990,19548 6972,19612 6972,19687 L 6972,20098 6562,20098 C 6487,20098 6422,20115 6357,20153 6292,20190 6245,20237 6207,20303 6169,20368 6152,20432 6152,20508 6152,20584 6169,20648 6207,20713 6245,20779 6292,20826 6357,20863 6422,20901 6487,20918 6562,20918 L 6972,20918 6972,21329 C 6972,21404 6990,21468 7027,21534 7065,21599 7112,21646 7178,21684 7243,21722 7307,21739 7383,21739 7458,21739 7522,21722 7588,21684 7653,21646 7700,21599 7738,21534 7776,21468 7793,21404 7793,21329 L 7793,20918 8613,20918 8613,21329 C 8613,21404 8630,21468 8668,21534 8706,21599 8753,21646 8818,21684 8884,21722 8948,21739 9023,21739 9099,21739 9163,21722 9229,21684 9294,21646 9341,21599 9379,21534 9416,21468 9434,21404 9434,21329 L 9434,20918 10254,20918 10254,21329 C 10254,21404 10271,21468 10309,21534 10347,21599 10394,21646 10459,21684 10525,21722 10589,21739 10664,21739 10740,21739 10804,21722 10869,21684 10935,21646 10982,21599 11019,21534 11057,21468 11074,21404 11074,21329 L 11074,20918 11895,20918 11895,21329 C 11895,21404 11912,21468 11950,21534 11988,21599 12035,21646 12100,21684 12165,21722 12230,21739 12305,21739 12381,21739 12445,21722 12510,21684 12576,21646 12623,21599 12660,21534 12698,21468 12715,21404 12715,21329 L 12715,20918 13536,20918 13536,21329 C 13536,21404 13553,21468 13591,21534 13628,21599 13675,21646 13741,21684 13806,21722 13870,21739 13946,21739 14021,21739 14086,21722 14151,21684 14216,21646 14263,21599 14301,21534 14339,21468 14356,21404 14356,21329 L 14356,20918 14766,20918 C 14842,20918 14906,20901 14971,20863 15037,20826 15084,20779 15121,20713 15159,20648 15176,20584 15176,20508 15176,20432 15159,20368 15121,20303 15084,20237 15037,20190 14971,20153 14906,20115 14842,20098 14766,20098 Z"/>
       </g>
      </g>
     </g>
    </g>
   </g>
  </g>
 </g>
</svg>